<svg width="20" height="20" viewBox="0 0 20 20" fill="none" xmlns="http://www.w3.org/2000/svg">
<path d="M9.5 18C13.6421 18 17 14.6421 17 10.5C17 6.35786 13.6421 3 9.5 3C5.35786 3 2 6.35786 2 10.5C2 14.6421 5.35786 18 9.5 18Z" stroke="black" stroke-miterlimit="10" stroke-linejoin="round"/>
<path d="M6.99973 3.56122C6.99973 3.56122 3.1732 10.898 8.35688 17.9898" stroke="black" stroke-miterlimit="10" stroke-linejoin="round"/>
<path d="M4.78573 4.61223C4.78573 4.61223 1.35716 9.58162 5.34696 16.8367" stroke="black" stroke-miterlimit="10" stroke-linejoin="round"/>
<path d="M12.0407 3.56122C12.0407 3.56122 15.8673 10.898 10.6836 17.9898" stroke="black" stroke-miterlimit="10" stroke-linejoin="round"/>
<path d="M14.2453 4.61223C14.2453 4.61223 17.6739 9.58162 13.6841 16.8367" stroke="black" stroke-miterlimit="10" stroke-linejoin="round"/>
<path d="M9.5 3V18" stroke="black" stroke-miterlimit="10" stroke-linejoin="round"/>
<path d="M2 10.5H17.1735" stroke="black" stroke-miterlimit="10" stroke-linejoin="round"/>
<path d="M2.83643 6.92857H16.265" stroke="black" stroke-miterlimit="10" stroke-linejoin="round"/>
<path d="M3.9082 14.9796H15.8674" stroke="black" stroke-miterlimit="10" stroke-linejoin="round"/>
</svg>
