<svg width="20" height="20" viewBox="0 0 20 20" fill="none" xmlns="http://www.w3.org/2000/svg">
<path d="M8.35222 7.02039L9.54168 5.83093L12.551 14.859C14.6207 12.8488 17.2732 9.79184 17.2732 7.25828C17.2732 4.81988 14.8943 3 13.1101 3C11.3259 3 10.1364 4.81988 10.1364 4.81988C10.1364 4.81988 8.94695 3 7.16276 3C7.11518 3 7.0676 3.01189 7.02002 3.01189L8.35222 7.02039Z" stroke="black" stroke-miterlimit="10" stroke-linejoin="round"/>
<path d="M8.35259 8.20987L7.16313 9.39933L4.52251 4.13C3.65421 4.89126 3 5.98557 3 7.2583C3 11.4214 10.1368 17 10.1368 17C10.1368 17 11.0884 16.2507 12.2897 15.1088L8.35259 8.20987Z" stroke="black" stroke-miterlimit="10" stroke-linejoin="round"/>
</svg>
