<svg width="20" height="24" viewBox="0 0 20 24" fill="none" xmlns="http://www.w3.org/2000/svg">
<path d="M6.30944 23.2643C7.20846 22.8579 7.33699 21.2007 6.59651 19.5631C5.85604 17.9254 4.52696 16.9273 3.62794 17.3338C2.72892 17.7403 2.6004 19.3974 3.34087 21.0351C4.08135 22.6728 5.41042 23.6708 6.30944 23.2643Z" stroke="black" stroke-miterlimit="10"/>
<path d="M7.01531 15.5888L3.59644 17.3426C4.48484 16.9081 5.81744 17.8738 6.57065 19.5057C7.32386 21.1377 7.22729 22.8082 6.33889 23.2428L16.372 18.0862C17.2604 17.6517 17.357 15.9714 16.6038 14.3491C15.8506 12.7172 14.518 11.7515 13.6296 12.1957L12.7626 12.6405M8.79947 14.6735L10.4299 13.8371" stroke="black" stroke-miterlimit="10"/>
<path d="M9.93246 22.2864C10.3102 22.0346 11.0657 21.2287 11.0657 20.02V17.7536M9.93246 22.2864L12.5766 20.7755C12.9543 20.5236 13.7098 19.7178 13.7098 18.5091L11.4434 19.6423V14.354L10.3102 13.5985L9.17699 9.82123C9.17699 9.69532 9.0259 9.36795 8.42153 9.06577M9.93246 22.2864C9.80655 22.4123 9.40363 22.513 8.79926 21.9087M11.0657 14.7317V17.7536M8.42153 9.06577L6.9106 8.3103C6.65878 8.43621 6.15514 8.76358 6.15514 9.06577L5.02194 11.7099M8.42153 9.06577L7.66607 10.5767L5.02194 11.7099M5.02194 11.7099L4.26648 12.0876V16.2427L5.02194 15.8649M5.02194 15.8649V13.5985L7.28833 12.4654V13.9763M5.02194 15.8649V16.6204M7.28833 13.9763C7.28833 13.9763 6.80613 13.703 6.53287 13.9763C6.03907 14.4701 6.15514 15.1095 6.15514 15.1095L11.0657 17.7536M7.28833 13.9763L11.0657 15.8649M6.9106 12.4654V10.9544" stroke="black"/>
<path d="M8.42157 7.55493L6.91064 8.3104M10.3102 7.93266L11.0657 8.3104C11.6701 8.61258 11.8212 8.93995 11.8212 9.06586L12.9544 12.8432L14.0876 13.5986V18.1314C14.0876 18.1314 12.2458 19.0523 11.0657 19.6424" stroke="black"/>
<path d="M8.53454 4.37948C8.51988 4.69001 8.96655 4.96338 9.5322 4.99009C10.0979 5.01679 10.5683 4.78671 10.583 4.47619C10.5976 4.16567 10.1509 3.89229 9.58529 3.86559C9.01964 3.83888 8.5492 4.06896 8.53454 4.37948Z" stroke="black" stroke-miterlimit="10"/>
<path d="M8.54669 7.94498C8.54143 8.25653 8.99916 8.52425 9.56232 8.54518C10.1282 8.56749 10.59 8.33178 10.5926 8.01884L10.5849 4.46598C10.5796 4.77753 10.1178 5.01324 9.55189 4.99093C8.98602 4.96862 8.531 4.70229 8.53627 4.39073L8.54669 7.94498Z" stroke="black" stroke-miterlimit="10"/>
<path d="M9.55603 4.15505L9.55603 0" stroke="black"/>
<path d="M12.3244 17.9658C12.0465 17.8471 12.0014 17.3287 12.2238 16.8079C12.4462 16.2872 12.8518 15.9612 13.1298 16.0799C13.4077 16.1986 13.4528 16.717 13.2304 17.2378C13.008 17.7586 12.6024 18.0845 12.3244 17.9658Z" stroke="black" stroke-miterlimit="10"/>
</svg>
